# xmcd
#
# Track frame offsets:
#	150
#	18957
#	35211
#	50592
#	69555
#	84655
#	98742
#	115594
#	134494
#	151975
#	169057
#	180097
#	198422
#	212102
#	225109
#	238398
#	250809
#	260331
#	275094
#
# Disc length: 3835
#
# Revision: 3
# Processed by: cddbd v1.5.1PL0 Copyright (c) Steve Scherf et al.
# Submitted via: FreeRIP 2.60 
# Normalized: r2:DSETVAR1,TDELIM( - )
#
DISCID=050ef913
DTITLE=Various Artist - Promo Only Country Radio June 2000
DYEAR=2000
DGENRE=Country
TTITLE0=Dixie Chicks - Cold Day In July
TTITLE1=Toby Keith - Country Comes To Town
TTITLE2=Martina McBride - There You Are
TTITLE3=Vince Gill - Feels Like Love
TTITLE4=Jo Dee Messina - That's The Way
TTITLE5=Tracy Lawrence - Lonely
TTITLE6=Wynonna - Without Your Love... I'm Going Nowhwere
TTITLE7=Chely Wright - She Went Out For Cigarettes
TTITLE8=Phil Vassar - Just Another Day In Paradise
TTITLE9=Jennifer Day - What If It's Me
TTITLE10=George Jones - Sinners and Saints
TTITLE11=Tara Lyn Hart - That's When You Came Along
TTITLE12=Diamond Rio - Stuff
TTITLE13=Alicia Elliott - You Wanna What?
TTITLE14=Anita Cochran - Good Times
TTITLE15=South Sixty Five - Love Bug (Bite Me)
TTITLE16=Rebel Hearts - When Will I Be Loved
TTITLE17=Brooklyn Cowboys, The - Learn How To Love Me
TTITLE18=Gina West - Fairy Tales, No Lies
EXTD=
EXTT0=
EXTT1=
EXTT2=
EXTT3=
EXTT4=
EXTT5=
EXTT6=
EXTT7=
EXTT8=
EXTT9=
EXTT10=
EXTT11=
EXTT12=
EXTT13=
EXTT14=
EXTT15=
EXTT16=
EXTT17=
EXTT18=
PLAYORDER=
